<svg xmlns="http://www.w3.org/2000/svg" viewBox="0 0 512 512"><title>Artboard 117</title><g id="Library"><path d="M21.33333,387.84422v0a38.82227,38.82227,0,0,1,.75391-7.61371L64,149.33333V128a42.66667,42.66667,0,0,1,42.66667-42.66667H409.17756A38.82244,38.82244,0,0,1,448,124.15578v25.17755l41.91276,230.89714a38.82227,38.82227,0,0,1,.75391,7.61371v0a38.82245,38.82245,0,0,1-38.82245,38.82245H60.15578A38.82245,38.82245,0,0,1,21.33333,387.84422Z" style="fill:#005eee"/><path d="M60.15625,426.66667H297.15107a42.66668,42.66668,0,0,0,41.95337-34.89752L377.4359,149.33333H448V128a42.66667,42.66667,0,0,0-42.66667-42.66667H106.66667A42.66667,42.66667,0,0,0,64,128v21.33333L22.08724,380.23047a38.82247,38.82247,0,0,0,38.069,46.4362Z" style="fill:#079cff"/><rect x="128" y="320" width="128" height="64" rx="31.99997" ry="31.99997" style="fill:#5cbeff"/><rect x="85.33333" y="85.33333" width="298.66667" height="21.33333" rx="10.66666" ry="10.66666" style="fill:#5cbeff"/><rect x="64" y="128" width="298.66667" height="21.33333" rx="10.66666" ry="10.66666" style="fill:#0784ff"/><path d="M361.42318,171.561a10.67014,10.67014,0,0,0-10.52344,9.00238l-6.66341,42.14314q-.0459.29142-.07552.58175-.06153.28558-.10742.57729L318.1276,387.885A21.33533,21.33533,0,0,1,297.151,405.33333H224.3112a10.66667,10.66667,0,0,0,0,21.33334H297.151a42.66614,42.66614,0,0,0,41.95313-34.8975L365.125,227.19722q.0459-.2914.07552-.58176.06153-.28556.10742-.57727s1.4642-9.25861,3.01953-19.09589l.002-.01137c.01823-.11532.0358-.22874.054-.34418l.00586-.03636.00326-.01926.02474-.15676.00456-.02991,3.556-22.48777A10.676,10.676,0,0,0,361.42318,171.561Z" style="fill:#5cbeff"/><rect x="42.66667" y="405.33333" width="256" height="21.33333" rx="10.66666" ry="10.66666" style="fill:#005eee"/><path d="M106.66667,128v21.33333l-47.70512,252.303a21.17858,21.17858,0,0,0,20.82537,25.03034h0a21.17859,21.17859,0,0,0,20.83121-17.3585l48.71516-259.97484V128a42.54635,42.54635,0,0,1,13.35012-31.00011c4.4934-4.25081,1.89685-11.66656-4.28862-11.66656h-9.0615A42.66666,42.66666,0,0,0,106.66667,128Z" style="fill:gold"/><path d="M298.66667,128v21.33333l-46.66478,252.303a21.17858,21.17858,0,0,0,20.82537,25.03034h0a21.17858,21.17858,0,0,0,20.8312-17.3585l47.67483-259.97484V128a42.48616,42.48616,0,0,1,9.28819-26.57958c5.21136-6.53576,1.00829-16.08709-7.35081-16.08709h-1.93738A42.66666,42.66666,0,0,0,298.66667,128Z" style="fill:gold"/><path d="M384,149.33333,341.33333,384H443.77146a21.33334,21.33334,0,0,0,20.98923-25.14956l-38.094-209.51711V128a21.33331,21.33331,0,0,0-21.33332-21.33331h0A21.33331,21.33331,0,0,0,384,128Z" style="fill:#dfe5ff"/><path d="M405.33333,85.33333A42.7149,42.7149,0,0,0,362.66667,128v9.15243a10.66666,10.66666,0,0,0,21.33333,0V128h0a21.33337,21.33337,0,0,1,21.33333-21.33333h0A21.33337,21.33337,0,0,1,426.66667,128v4.93461c0,.19668.00521.39262.01562.58667-.01041.19405-.01562.39-.01562.58667v15.22538h0l.39778,2.18654.00065.00678.94727,5.20687.00065.00641.15234.838.00261.01434.00976.05077.00261.01509.0039.02159c.00391.02078.00717.03847.01042.05932l.0013.00393.00716.04213.00521.0268.00782.04241.01757.09622.00326.01993.043.23581.00325.0173.08985.49476.00716.03852.0918.50617.0013.00861.0944.51618c.0026.01723.00521.03086.00846.04813l.04623.25368v.00154l.05013.27412.002.01012.10091.5574.00391.02173.02409.13189.00065.00122.026.14338.00065.003.05078.27979.00456.02631.00846.04828.00456.0225.00976.05538.00261.01348.02344.13051.00586.03094.04557.25034.01432.07917.04557.25143.00066.00392.05533.30351.00065.00167.11.60718.00521.02755.08333.45749v.00136l.02735.15.00325.01771.05534.30612.002.01086.05339.29129c.00716.04061.01432.07816.02148.1189l.01107.06051.00391.022.02669.14508.002.01168.028.15571.0013.00686.026.14118.00651.03666.056.30846.00456.02658.02278.12305c.01758.09774.03581.19944.054.2979l.01042.0588.0026.01232.02474.13685.01042.056.00846.04711.002.01269.013.06847c.0026.01775.00586.03494.00911.05272l.00065.00266c.02018.11021.03906.21475.05925.32584l.00651.03644c8.70768,47.89334,32.2513,177.38036,32.2513,177.38036a10.66651,10.66651,0,1,0,20.98893-3.81612L448,147.40982V134.10795c0-.19668-.00521-.39262-.01562-.58667.01041-.19405.01562-.39.01562-.58667V128a42.7149,42.7149,0,0,0-42.66667-42.66667Z" style="fill:#005eee"/><path d="M402.08947,106.66667h0a21.08524,21.08524,0,0,0-20.84006,17.87908L345.07047,359.7086A21.08524,21.08524,0,0,0,365.91053,384h0a21.08524,21.08524,0,0,0,20.84006-17.87908l36.1789-235.16285A21.08524,21.08524,0,0,0,402.08947,106.66667Z" style="fill:#a4b1ff"/><rect x="384" y="106.66667" width="42.66667" height="277.33333" rx="21.33331" ry="21.33331" style="fill:#ccd4ff"/><path d="M405.33335,106.66667h0A21.33331,21.33331,0,0,0,384,128l42.66667,234.66671A21.33331,21.33331,0,0,0,448,384h0a21.33331,21.33331,0,0,0,21.33331-21.33331L426.66667,128A21.33331,21.33331,0,0,0,405.33335,106.66667Z" style="fill:#eff2ff"/><rect x="256" y="405.33333" width="42.66667" height="21.33333" rx="10.66666" ry="10.66666" style="fill:#ffa300"/><rect x="64" y="405.33333" width="42.66667" height="21.33333" rx="10.66666" ry="10.66666" style="fill:#ffa300"/><path d="M53.35417,384a10.15374,10.15374,0,0,1-2.10417-.20833,10.65061,10.65061,0,0,1-8.375-12.55209L85.54167,157.90625a10.76762,10.76762,0,0,1,12.54166-8.36458,10.6506,10.6506,0,0,1,8.375,12.55208L63.79167,375.42708A10.65941,10.65941,0,0,1,53.35417,384Z" style="fill:#94d4ff"/><rect x="106.66667" y="128" width="42.66667" height="21.33333" rx="10.66666" ry="10.66666" style="fill:#ffa300"/><rect x="298.66667" y="128" width="42.66667" height="21.33333" rx="10.66666" ry="10.66666" style="fill:#ffa300"/><rect x="128" y="85.33333" width="42.66667" height="21.33333" rx="10.66666" ry="10.66666" style="fill:#fffc74"/><rect x="320" y="85.33333" width="42.66667" height="21.33333" rx="10.66666" ry="10.66666" style="fill:#fffc74"/></g></svg>